<svg xmlns="http://www.w3.org/2000/svg" fill="none" viewBox="0 0 34 36"><path fill="#6C46B9" fill-rule="evenodd" d="M30 9.05a4 4 0 0 0-4-4H8a4 4 0 0 0-4 4v18a4 4 0 0 0 4 4h18a4 4 0 0 0 4-4v-18ZM17 24.203a6.153 6.153 0 1 0 0-12.306 6.153 6.153 0 0 0 0 12.306Z" clip-rule="evenodd"/><path stroke="#9B87C5" d="M8 3.55h18a5.5 5.5 0 0 1 5.5 5.5v18a5.5 5.5 0 0 1-5.5 5.5H8a5.5 5.5 0 0 1-5.5-5.5v-18A5.5 5.5 0 0 1 8 3.55Z"/><path stroke="#C4B3E6" d="M8 1.05h18a7.5 7.5 0 0 1 7.5 7.5v19a7.5 7.5 0 0 1-7.5 7.5H8a7.5 7.5 0 0 1-7.5-7.5v-19A7.5 7.5 0 0 1 8 1.05Z"/></svg>