<svg xmlns="http://www.w3.org/2000/svg" width="25" height="25" fill="none" viewBox="0 0 80 40"><path fill="url(#a)" d="M11.204 58.743c2.985 0 7.268.254 9.28.254 2.012 0 4.432 2.66 13.87 2.66 9.438 0 11.376-3.305 11.292-5.729-.079-2.42 1.806-2.718 2.31-5.33.39-2.008-.591-2.398-.591-3.687 0-1.289 1.907-1.96 1.907-4.134 0-2.174-1.693-3.95-1.693-3.95h16.619c4.357 0 9.802.364 9.802-4.357s-5.804-4.151-8.89-4.151c-3.086 0-21.783-.08-21.783-.08s7.623-2.055 7.623-7.986c0-5.931-4.129-4.792-7.439-1.815-5.843 5.243-19.621 2.297-24.32 14.519 0 0-.404 1.32-9.097-.224 0 0-4.094.662-4.094 11.012 0 11.126 5.204 12.998 5.204 12.998Z"/><path fill="url(#b)" d="M50.429 19.398c.324.671.517 1.596.517 2.854 0 5.278-6.027 7.483-7.356 7.904l-5.983.224h-5.44c10.253-1.719 17.6-7.321 18.262-10.982Z"/><path fill="url(#c)" d="M50.95 22.252c0 5.931-7.623 7.988-7.623 7.988l-11.37.28s5.347-1.582 9.498-1.775c5.24-.242 9.395-3.95 9.404-7.904.057.42.092.885.092 1.411Z"/><path fill="url(#d)" d="M64.202 38.828H47.584s1.188 1.249 1.574 2.932c-.281-.833-2.219-2.433-3.27-3.112-1.132-.728 1.13-1.197 4.116-1.197 2.985 0 14.505-.241 19.156-.241 2.784 0 4.84-1.083 4.84-2.744 0 4.725-5.445 4.362-9.798 4.362Z"/><path fill="url(#e)" d="M48.013 50.278c-.004-1.206-1.516-1.609-1.516-3.34 0-1.736 2.783-2.793 2.783-4.16 0 2.174-1.907 2.84-1.907 4.133-.004 1.219.868 1.635.64 3.367Z"/><path fill="url(#f)" d="M14.53 57.647c7.199-.425 2.066-5.87 9.803-.061 4.419 3.318 12.704 2.48 15.97 2.117 3.266-.364 3.932-3.148 4.414-5.08.42-1.68 2.59-2.315 3.156-3.67-.6 2.293-2.306 2.674-2.227 4.98.08 2.42-1.854 5.73-11.292 5.73-9.438 0-11.858-2.661-13.87-2.661-2.012 0-6.295-.255-9.28-.255 0 0-1.789-.644-3.27-3.423 1.709.504 3.993 2.477 6.597 2.323Z"/><path fill="url(#g)" d="M19.19 34.957c2.455-6.383 7.387-8.628 12.371-10.065-7.829 2.884-10.376 10.49-12.01 11.577-1.509 1.004-6.103 1.753-10.846-.894.763-.741 1.39-.842 1.39-.842 8.692 1.543 9.096.224 9.096.224Z"/><path fill="url(#h)" d="M6.009 46.438c5.365-.864 10.35 3.073 18.556 3.073 9.013 0 13.743 5.874 22.835 2.63-.741 1.333-1.81 1.95-1.75 3.788.08 2.42-1.854 5.729-11.292 5.729-9.438 0-11.858-2.66-13.87-2.66-2.012 0-6.295-.255-9.28-.255-.005 0-4.989-1.797-5.2-12.305Z"/><path fill="url(#i)" d="M44.599 37.13c0 2.543.846 3.994.846 6.05 0 2.056-1.245 8.71-5.686 8.71-4.44 0-13.454-3.63-14.593-7.623-1.136-3.993 4.317-11.09 7.952-11.695 3.634-.605 11.48.565 11.48 4.559Z"/><path fill="#975500" d="M31.653 30.56s11.59-.325 11.674-.325l.741-.241c0-.167-.504-.224-.67-.224-.343 0-8.43-.263-11.745.79Z"/><path fill="url(#j)" d="M70.392 34.023c0 1.416-3.34 2.63-9.916 1.718-6.575-.911-14.672 2.218-14.672-1.27 0-3.486 13.055-1.768 15.08-1.768 2.025 0 9.508-1.512 9.508 1.32Z"/><defs><radialGradient id="b" cx="0" cy="0" r="1" gradientTransform="rotate(-90 39.875 -19.617) scale(48.3649)" gradientUnits="userSpaceOnUse"><stop stop-color="#FFBC47" stop-opacity="0"/><stop offset="1" stop-color="#FF8900"/></radialGradient><radialGradient id="c" cx="0" cy="0" r="1" gradientTransform="matrix(-29.2777 1.53284 -.32294 -6.16826 60.415 27.975)" gradientUnits="userSpaceOnUse"><stop stop-color="#FFBC47" stop-opacity="0"/><stop offset="1" stop-color="#FF8900"/></radialGradient><radialGradient id="f" cx="0" cy="0" r="1" gradientTransform="rotate(-90 42.803 11.473) scale(28.9454)" gradientUnits="userSpaceOnUse"><stop stop-color="#FFBC47" stop-opacity="0"/><stop offset="1" stop-color="#FF8900"/></radialGradient><radialGradient id="g" cx="0" cy="0" r="1" gradientTransform="rotate(-90 33.035 -.408) scale(30.076)" gradientUnits="userSpaceOnUse"><stop stop-color="#FFBC47" stop-opacity="0"/><stop offset="1" stop-color="#FF8900"/></radialGradient><radialGradient id="h" cx="0" cy="0" r="1" gradientTransform="matrix(0 -25.0955 103.188 0 33.64 48.61)" gradientUnits="userSpaceOnUse"><stop stop-color="#FFBC47" stop-opacity="0"/><stop offset="1" stop-color="#FF8900"/></radialGradient><radialGradient id="i" cx="0" cy="0" r="1" gradientTransform="matrix(0 -10.3572 5.257 0 40.59 42.21)" gradientUnits="userSpaceOnUse"><stop stop-color="#FBE07A"/><stop offset=".265" stop-color="#FCDF73" stop-opacity=".735"/><stop offset=".655" stop-color="#FDDB5F" stop-opacity=".345"/><stop offset="1" stop-color="#FFD748" stop-opacity="0"/></radialGradient><radialGradient id="j" cx="0" cy="0" r="1" gradientTransform="matrix(-12.69652 -.35198 .04106 -1.48126 58.097 34.225)" gradientUnits="userSpaceOnUse"><stop stop-color="#FBE07A"/><stop offset=".265" stop-color="#FCDF73" stop-opacity=".735"/><stop offset=".655" stop-color="#FDDB5F" stop-opacity=".345"/><stop offset="1" stop-color="#FFD748" stop-opacity="0"/></radialGradient><linearGradient id="a" x1="13.101" x2="67.6" y1="54.161" y2="26.612" gradientUnits="userSpaceOnUse"><stop offset=".001" stop-color="#FFCB4B"/><stop offset="1" stop-color="#FFD748"/></linearGradient><linearGradient id="d" x1="61.657" x2="58.107" y1="43.667" y2="29.792" gradientUnits="userSpaceOnUse"><stop stop-color="#FFBC47" stop-opacity="0"/><stop offset="1" stop-color="#E68E43"/></linearGradient><linearGradient id="e" x1="50.568" x2="41.856" y1="46.526" y2="46.526" gradientUnits="userSpaceOnUse"><stop stop-color="#FFBC47" stop-opacity="0"/><stop offset="1" stop-color="#E68E43"/></linearGradient></defs></svg>